<svg width="32" height="32" viewBox="0 0 32 32" fill="none" xmlns="http://www.w3.org/2000/svg">
<path fill-rule="evenodd" clip-rule="evenodd" d="M27.7731 10.5189L29.5388 7.46076C27.8525 4.79006 25.3978 2.65299 22.4853 1.36007L27.7731 10.5189ZM20.2339 0.557353C19.2803 0.296364 18.2912 0.121385 17.2754 0.0412726L25.5489 14.3714L26.8792 12.0673L20.2339 0.557353ZM4.40013 4.97101C3.65106 5.75924 2.98148 6.62374 2.40426 7.55165H19.8236L18.3337 4.97101H4.40013ZM6.09785 3.42262H17.4397L15.4637 0C11.9326 0.116303 8.69102 1.37678 6.09785 3.42262ZM20.7176 9.10004H12.1297L8.1228 16.0402L12.1615 23.0355H20.5467L24.655 15.9198L20.7176 9.10004ZM5.89859 19.8927L7.22884 17.5886L15.5404 31.9847C14.5643 31.9572 13.61 31.8422 12.6852 31.6474L5.89859 19.8927ZM26.3457 28.1968C23.8661 30.3006 20.7372 31.6623 17.3019 31.939L15.1414 28.1968H26.3457ZM27.9343 26.6484H14.2474L13.0555 24.5839H29.4992C29.0332 25.3146 28.5094 26.0049 27.9343 26.6484ZM2.87039 25.1377L5.00463 21.4411L10.545 31.0372C7.41677 29.9028 4.74291 27.8206 2.87039 25.1377ZM32 15.9912C32 18.5191 31.4138 20.91 30.3698 23.0355H26.9798L31.9281 14.4647C31.9757 14.9671 32 15.4763 32 15.9912ZM30.4151 9.03972L22.3346 23.0355H25.1919L31.5181 12.0782C31.252 11.0195 30.8804 10.0028 30.4151 9.03972ZM10.3418 9.10004L1.94514 23.6435C1.45355 22.7425 1.04607 21.789 0.733259 20.7936L7.48457 9.10004H10.3418ZM5.69664 9.10004H1.55593C0.558482 11.187 0 13.5239 0 15.9912C0 16.8797 0.0724182 17.7512 0.211674 18.6003L5.69664 9.10004Z" fill="#333333"/>
</svg>
